<svg width="60" height="62" viewBox="0 0 60 62" fill="none" xmlns="http://www.w3.org/2000/svg">
<path d="M55 51.4502V31.6152C55.0001 30.2353 54.7224 28.8698 54.1838 27.6025C53.6451 26.3351 52.8569 25.1926 51.8675 24.2449L33.435 6.5846C32.5067 5.69481 31.2776 5.19904 30 5.19904C28.7224 5.19904 27.4933 5.69481 26.565 6.5846L8.1325 24.2449C7.14306 25.1926 6.35488 26.3351 5.81624 27.6025C5.27761 28.8698 4.99986 30.2353 5 31.6152V51.4502C5 52.7945 5.52678 54.0839 6.46447 55.0345C7.40215 55.9851 8.67392 56.5191 10 56.5191H50C51.3261 56.5191 52.5978 55.9851 53.5355 55.0345C54.4732 54.0839 55 52.7945 55 51.4502Z" stroke="#111111" stroke-width="3.5" stroke-linecap="round" stroke-linejoin="round"/>
</svg>
