<svg width="54" height="51" viewBox="0 0 54 51" fill="none" xmlns="http://www.w3.org/2000/svg">
<path d="M8.25 4.61767L8.25 46.8383L30.75 46.8383L30.75 4.61767L8.25 4.61767ZM6.375 0.779434L32.625 0.779434C33.1223 0.779434 33.5992 0.981626 33.9508 1.34153C34.3025 1.70144 34.5 2.18957 34.5 2.69855L34.5 48.7574C34.5 49.2664 34.3025 49.7545 33.9508 50.1144C33.5992 50.4743 33.1223 50.6765 32.625 50.6765L6.375 50.6765C5.87772 50.6765 5.40081 50.4743 5.04918 50.1144C4.69754 49.7545 4.5 49.2664 4.5 48.7574L4.5 2.69855C4.5 2.18957 4.69754 1.70144 5.04918 1.34153C5.40081 0.981626 5.87772 0.779434 6.375 0.779434Z" fill="#2C2C2C"/>
<path d="M12 12.2941L27 12.2941V16.1324L12 16.1324V12.2941ZM12 23.8088L27 23.8088V27.6471L12 27.6471L12 23.8088ZM12 35.3236L27 35.3236L27 39.1618L12 39.1618V35.3236ZM34.5 27.6471L42 27.6471L42 31.4853H34.5L34.5 27.6471ZM34.5 35.3236H42V39.1618H34.5V35.3236ZM0.75 46.8383L53.25 46.8383V50.6765L0.75 50.6765L0.75 46.8383Z" fill="#2C2C2C"/>
<path d="M34.5 19.9706L34.5 46.8383H45.75L45.75 19.9706L34.5 19.9706ZM32.625 16.1324L47.625 16.1324C48.1223 16.1324 48.5992 16.3346 48.9508 16.6945C49.3025 17.0544 49.5 17.5425 49.5 18.0515L49.5 48.7574C49.5 49.2663 49.3025 49.7545 48.9508 50.1144C48.5992 50.4743 48.1223 50.6765 47.625 50.6765L32.625 50.6765C32.1277 50.6765 31.6508 50.4743 31.2992 50.1144C30.9475 49.7545 30.75 49.2663 30.75 48.7574L30.75 18.0515C30.75 17.5425 30.9475 17.0544 31.2992 16.6945C31.6508 16.3346 32.1277 16.1324 32.625 16.1324Z" fill="#2C2C2C"/>
</svg>
