<svg width="60" height="63" viewBox="0 0 60 63" fill="none" xmlns="http://www.w3.org/2000/svg">
<path d="M23.7143 14.4517H20.5714M23.7143 37.3788H20.5714H23.7143Z" stroke="#2C2C2C" stroke-width="3.5" stroke-linecap="round" stroke-linejoin="round"/>
<path d="M8 25.9153L52 25.9153M8 25.9153L8 4.70775C8 4.2517 8.19867 3.81433 8.55231 3.49186C8.90595 3.16938 9.38559 2.98822 9.88571 2.98822L50.1143 2.98822C50.6144 2.98822 51.094 3.16938 51.4477 3.49186C51.8013 3.81433 52 4.2517 52 4.70775L52 25.9153L8 25.9153ZM8 25.9153L8 58.5863C8 58.8121 8.04878 59.0357 8.14354 59.2444C8.23831 59.453 8.37721 59.6426 8.55231 59.8022C8.72742 59.9619 8.9353 60.0886 9.16408 60.175C9.39287 60.2614 9.63808 60.3059 9.88571 60.3059L50.1143 60.3059C50.3619 60.3059 50.6071 60.2614 50.8359 60.175C51.0647 60.0886 51.2726 59.9619 51.4477 59.8022C51.6228 59.6426 51.7617 59.453 51.8565 59.2444C51.9512 59.0357 52 58.8121 52 58.5863L52 25.9153L8 25.9153Z" stroke="#2C2C2C" stroke-width="3.5"/>
</svg>
